HIERARCHY
ROOT Hips
{
	OFFSET 0.0000 0.0000 0.0000
	CHANNELS 6 Xposition Yposition Zposition Zrotation Xrotation Yrotation
	JOINT Ab
	{
		OFFSET -0.0000 8.0846 -0.0000
		CHANNELS 3 Zrotation Xrotation Yrotation
		JOINT Chest
		{
			OFFSET -0.0000 25.0068 -0.0000
			CHANNELS 3 Zrotation Xrotation Yrotation
			JOINT Neck
			{
				OFFSET -0.0000 25.0068 0.0000
				CHANNELS 3 Zrotation Xrotation Yrotation
				JOINT Head
				{
					OFFSET -0.0000 10.7556 0.0000
					CHANNELS 3 Zrotation Xrotation Yrotation
					End Site
					{
						OFFSET -0.0000 16.6222 0.0000
					}
				}
			}
			JOINT LeftCollar
			{
				OFFSET -0.0000 25.0068 0.0000
				CHANNELS 3 Zrotation Xrotation Yrotation
				JOINT LeftShoulder
				{
					OFFSET 19.5556 -0.0000 0.0000
					CHANNELS 3 Zrotation Xrotation Yrotation
					JOINT LeftElbow
					{
						OFFSET 27.1828 0.0000 0.0000
						CHANNELS 3 Zrotation Xrotation Yrotation
						JOINT LeftWrist
						{
							OFFSET 23.3157 0.0000 0.0000
							CHANNELS 3 Zrotation Xrotation Yrotation
							End Site
							{
								OFFSET 0.0000 -14.6667 0.0000
							}
						}
					}
				}
			}
			JOINT RightCollar
			{
				OFFSET -0.0000 25.0068 0.0000
				CHANNELS 3 Zrotation Xrotation Yrotation
				JOINT RightShoulder
				{
					OFFSET -19.5556 0.0000 0.0000
					CHANNELS 3 Zrotation Xrotation Yrotation
					JOINT RightElbow
					{
						OFFSET -27.1828 0.0000 0.0000
						CHANNELS 3 Zrotation Xrotation Yrotation
						JOINT RightWrist
						{
							OFFSET -23.3157 0.0000 0.0000
							CHANNELS 3 Zrotation Xrotation Yrotation
							End Site
							{
								OFFSET -0.0000 -14.6667 0.0000
							}
						}
					}
				}
			}
		}
	}
	JOINT LeftHip
	{
		OFFSET 11.7333 0.0000 0.0000
		CHANNELS 3 Zrotation Xrotation Yrotation
		JOINT LeftKnee
		{
			OFFSET -0.0000 -40.8688 0.0000
			CHANNELS 3 Zrotation Xrotation Yrotation
			JOINT LeftAnkle
			{
				OFFSET -0.0000 -44.4337 0.0000
				CHANNELS 3 Zrotation Xrotation Yrotation
				End Site
				{
					OFFSET -0.0000 -4.8889 16.6222
				}
			}
		}
	}
	JOINT RightHip
	{
		OFFSET -11.7333 0.0000 0.0000
		CHANNELS 3 Zrotation Xrotation Yrotation
		JOINT RightKnee
		{
			OFFSET -0.0000 -40.8688 0.0000
			CHANNELS 3 Zrotation Xrotation Yrotation
			JOINT RightAnkle
			{
				OFFSET -0.0000 -44.4337 0.0000
				CHANNELS 3 Zrotation Xrotation Yrotation
				End Site
				{
					OFFSET -0.0000 -4.8889 16.6222
				}
			}
		}
	}
}
MOTION
Frames: 18
Frame Time: 0.010000
2.1498 85.9253 132.8991 1.6196 354.7568 180.7988 3.9597 15.1328 2.5250 355.8871 9.8745 3.4140 1.4047 344.8412 357.6059 359.9670 353.9768 357.4137 349.3360 356.5259 35.5156 345.5030 71.6123 340.5035 56.7332 338.9219 320.3470 90.3478 355.2582 26.5988 14.9405 358.8407 351.4504 12.5407 55.7783 59.4573 321.9633 335.4379 65.0344 274.5525 344.9204 9.4790 5.3706 318.9214 357.5484 338.3495 55.7741 12.6172 6.9279 339.7764 24.7909 4.0597 350.7225 0.2555 358.4945 28.0165 12.6390 351.0154 335.0031 334.3754 
2.3150 85.7040 131.7047 1.8312 355.1119 180.3283 3.9360 15.1500 2.8752 355.3948 10.0269 3.8129 0.2859 345.1904 357.3573 0.9524 354.0016 357.3663 349.1869 356.4699 35.4863 342.7102 71.3863 343.2124 56.2292 338.7102 320.2995 90.6332 354.9033 25.9401 15.1722 358.8723 351.9509 11.1059 55.6541 60.8085 322.2981 335.6117 65.1297 274.6967 344.8253 9.2964 6.1177 318.8613 358.5598 339.9041 53.9217 11.0688 3.1678 340.0606 23.0871 4.2072 352.2464 0.3371 358.7944 27.3448 12.8315 350.2785 335.1777 334.1738 
2.4092 85.4710 130.5969 1.9062 355.1125 180.0216 4.0612 14.9359 2.9051 354.9352 9.9336 3.8812 358.8253 345.8073 357.0354 2.0654 354.0329 357.2878 349.4676 356.7242 34.6539 337.5157 71.9009 347.2048 55.9604 338.7951 321.1252 90.6556 354.3877 24.8293 15.4939 358.8922 352.4019 10.4509 55.7906 61.2904 322.7245 335.9708 65.0684 275.0168 344.7672 9.5782 6.4903 318.8017 359.2228 341.2136 51.9433 9.9274 358.3038 339.8875 21.5757 4.2291 353.0477 0.0359 358.7775 27.2223 13.0937 350.0903 334.8889 334.3173 
2.4751 85.2434 129.4151 1.9034 355.0581 179.5768 3.8547 14.5043 3.1406 354.7009 9.9320 4.0971 357.7153 345.9643 356.9727 2.7806 354.4568 357.3868 349.0154 356.5357 33.6969 331.2634 69.9910 353.1090 54.0415 339.3838 319.2500 92.2646 355.1236 24.5609 15.9081 358.9261 353.1043 10.4866 55.9935 61.0895 323.4722 336.7052 64.7592 275.0796 344.3283 10.0906 6.8838 319.0741 359.9983 342.5789 49.8134 8.7805 355.9496 339.4098 24.1901 4.1625 353.9113 359.7174 358.6150 26.9969 13.6862 349.8665 334.7646 334.5025 
2.5684 85.0381 128.1074 1.9937 355.2775 178.9537 3.6151 14.0979 3.4449 354.5906 10.4580 4.3926 356.6203 345.0668 356.9395 3.2567 355.4572 357.5166 348.5617 356.3931 33.3142 328.2853 70.0304 354.7788 53.3072 339.7198 320.4667 91.8623 354.0784 23.0536 16.2984 358.9861 353.6525 11.2860 55.8623 60.2839 324.7076 337.8454 64.4047 274.6110 343.9541 10.9745 7.4756 319.9696 1.0242 344.0135 47.8832 7.2561 0.1834 341.1683 21.7319 4.2531 355.1675 359.7897 358.4058 26.7484 14.2521 349.7905 334.3259 334.4587 
2.5993 84.8789 126.8188 1.9695 355.3906 178.3540 3.4729 13.8862 3.5975 354.1621 10.1800 4.5442 356.0533 345.2040 357.0506 3.4064 355.6017 357.7045 348.0668 356.3565 31.5732 321.3690 65.8214 0.7608 50.2663 340.6702 317.6013 93.2774 355.1250 21.2947 16.8798 359.0150 354.0562 11.9796 56.4875 59.5009 325.6128 338.8061 63.3096 274.6673 343.7763 12.0688 7.6657 321.0271 1.6104 345.4761 45.7092 5.9875 359.8916 341.2235 21.6789 4.1757 356.2530 359.8179 358.1959 26.5873 16.1446 349.5462 334.5974 333.2313 
2.5907 84.6694 125.5583 1.9041 354.9805 177.8047 3.4473 13.0596 3.6736 353.5231 10.0218 4.6381 355.5693 344.8679 357.1874 3.6958 355.8949 357.9194 347.7476 356.4180 30.3474 317.0442 63.3131 3.7693 48.1970 341.2224 317.3850 92.6510 354.3147 18.9059 17.4562 359.0411 354.3474 13.0097 57.1079 58.5162 326.6823 340.0357 61.9428 274.0380 344.1547 12.4531 7.6795 321.6792 2.0166 347.1429 43.6033 4.4195 357.1621 340.9331 21.1731 4.0418 356.7294 359.9916 358.2369 26.4282 16.6854 349.5779 333.9330 332.7690 
2.5509 84.4601 124.2380 1.8761 354.7196 177.3401 3.6101 12.3205 3.6214 352.7665 9.9342 4.6409 355.1140 344.2476 357.3042 4.0944 356.2953 358.1301 347.1495 356.3335 29.5935 315.0613 62.1337 4.6863 46.5146 342.0701 318.7671 92.5863 352.7629 16.8881 18.0319 359.0629 354.5564 14.4663 57.8804 57.1234 327.5960 341.1677 60.0559 273.6818 344.2084 13.3434 7.4732 322.8454 1.6666 348.5129 41.4346 3.6401 355.1591 340.2925 25.2502 3.8902 357.3810 0.2003 358.2823 26.2744 16.6367 350.3307 333.6831 333.2091 
2.4997 84.2716 122.9311 1.8084 354.5288 176.8769 3.7596 11.6763 3.5529 352.0301 9.8196 4.6221 354.8817 343.3619 357.4803 4.4150 356.9427 358.3640 346.3663 356.2092 28.4920 313.3788 59.7233 5.5081 44.1376 343.4226 319.5565 92.9029 352.3833 15.2618 18.6624 359.0604 354.6617 16.5201 58.5618 55.0706 328.5881 342.4617 57.9835 273.1808 344.0754 14.2381 7.0753 324.4081 1.0451 349.9816 39.1672 2.8517 353.6523 339.8646 27.9030 3.7023 357.9733 0.4437 358.1880 26.3916 16.8192 351.2269 333.7908 333.6629 
2.4600 84.0482 121.3900 1.9351 354.4160 176.3754 3.9308 10.9111 3.4916 351.2364 9.6194 4.6052 354.7182 342.3163 357.6795 4.8445 357.7535 358.6023 345.7272 356.2043 27.1064 311.0121 55.5955 6.7786 41.4309 344.9610 320.3273 93.1369 351.9126 13.2550 19.2967 359.0479 354.6535 18.1093 58.8315 53.5438 330.1069 344.1895 55.9404 272.5982 343.8137 15.1188 6.8524 326.1447 0.4417 351.5147 36.9667 1.7758 353.4450 340.5270 27.9453 3.7823 358.5996 0.6627 358.0279 26.7837 16.5298 351.9679 333.8475 334.3516 
2.4088 83.8426 119.9799 2.0097 354.0230 175.9572 3.9791 10.0323 3.4161 350.6878 9.1306 4.5093 354.8248 341.5247 357.8296 4.9273 358.4851 358.7365 345.1962 356.2884 25.4915 308.7019 51.1008 7.6146 38.5449 346.6440 321.8898 93.2546 350.9037 10.4249 19.9100 359.0102 354.4402 20.0856 58.9602 51.5638 331.8140 345.9418 53.6078 272.3351 343.3710 16.2686 6.5096 327.4926 359.7121 352.4889 35.6517 1.3799 354.6031 343.4069 26.7522 3.8334 358.5979 0.6962 357.7480 27.5487 15.9190 353.2077 334.1948 335.6448 
2.3413 83.6610 118.7048 2.0665 353.3195 175.5145 3.9423 8.9874 3.3949 350.3106 8.4832 4.4237 355.1473 340.5812 357.9504 4.7443 359.5118 358.8190 344.5465 356.3524 23.7678 306.9225 46.3148 8.0213 35.7631 348.2864 324.0417 93.2331 350.2244 7.8203 20.4024 358.9616 354.3642 23.2926 59.0525 48.3156 333.2551 347.3278 51.2349 272.7398 342.7840 18.4976 6.3495 327.8503 359.4834 352.2695 36.1416 1.4120 359.5605 348.3592 24.4968 3.9472 357.8856 0.5929 357.1348 28.8997 16.9088 354.6344 334.9338 336.2922 
2.3402 83.4842 117.2912 2.4384 353.6491 175.3317 4.0286 8.8446 3.3008 350.1129 8.0418 4.3075 355.4744 339.9846 358.0027 4.8714 0.0008 358.8113 343.7701 356.4511 21.4869 305.6656 40.2410 8.3376 32.8472 349.9471 326.1078 92.8828 349.5881 5.1260 20.8437 358.9642 354.5417 28.2405 58.3540 43.1803 335.0551 348.8828 49.3204 273.0003 341.9680 21.8710 6.8935 328.7359 359.5226 350.7922 37.4662 359.6816 1.3023 346.8983 25.8051 4.4099 358.2370 0.3231 356.4763 30.4554 17.1657 355.9108 335.4814 337.2047 
2.3796 83.3251 115.8985 2.7554 354.1454 175.1439 3.6918 8.9011 3.2133 350.4790 7.6362 4.1360 355.9196 338.9708 358.1380 4.5007 1.0382 358.8709 342.7428 356.5963 18.5486 304.8630 31.3464 9.0107 29.3191 351.6135 326.7453 92.1038 349.5972 1.4146 21.0684 358.9549 354.3654 32.2020 57.1293 39.1358 336.6186 350.0981 47.2944 274.0564 342.0810 23.7961 7.6760 329.5003 359.6388 349.4395 38.5039 359.5118 2.5754 346.7523 24.2284 4.9420 358.4148 0.0288 355.5746 32.5468 17.3548 357.4446 335.9909 338.1432 
2.3374 83.3675 114.6816 2.5651 354.3997 175.3820 3.0729 8.9501 2.8316 350.6155 7.1487 3.6569 356.3341 338.1226 358.1451 4.4781 1.7064 358.8143 341.9620 356.9776 14.7729 304.7364 18.8263 9.8782 24.1656 353.6847 326.1691 93.8569 349.6416 356.3354 21.3801 358.9510 354.5206 37.9154 55.0220 33.0667 337.9155 351.0300 45.4997 274.9250 341.0457 26.5729 7.4892 330.1200 359.8610 349.3193 38.8070 1.2670 359.6418 345.7425 24.0066 4.9578 357.8159 359.5911 355.0596 35.0836 15.4903 359.6540 336.3366 340.5322 
2.2882 83.5140 113.3475 2.3024 354.9162 175.5064 2.1118 9.0571 2.7997 350.8999 7.2311 3.5424 357.3560 336.2734 358.4252 4.0558 2.9890 358.8761 341.4509 357.4580 11.3897 304.8235 6.1217 10.8218 19.7604 355.1420 325.2258 93.5022 349.3960 350.1122 21.4855 358.9848 354.6654 42.9758 52.1107 27.9966 339.0689 351.8030 43.9939 276.5533 341.0366 28.9289 6.9100 331.3866 0.8621 350.4653 38.8648 1.8159 357.4982 344.6888 22.0027 4.8167 357.2494 359.6785 354.8460 38.1246 14.8261 0.8765 338.5182 341.0630 
2.2603 83.7297 112.1331 2.0360 355.2280 175.8106 1.4426 8.9458 2.6563 350.9849 7.4219 3.3549 358.2962 334.7671 358.6510 3.7022 4.0171 358.8974 341.3951 357.9875 8.3920 304.8300 355.0146 11.7280 15.9508 356.2926 324.5388 93.2097 349.2915 343.9597 21.5129 358.9962 354.6530 46.8394 49.3021 23.9822 339.8865 352.3896 42.1324 277.2688 340.9522 29.5995 6.3166 332.6799 1.6670 351.3129 38.5104 0.9019 357.8497 344.4131 21.0729 4.6638 356.4022 359.9361 354.7772 41.0686 13.2538 1.6780 341.3449 342.1473 
2.2016 83.9608 110.7518 1.8480 355.4318 176.0183 1.0820 8.7612 2.1579 350.6673 7.2966 2.8335 358.9911 333.6956 359.0709 4.1341 4.9148 359.1681 341.3426 358.4091 6.6345 304.2934 348.9708 11.7148 14.5856 356.3426 325.1417 92.7070 349.3112 340.7827 21.7949 358.9997 354.8715 49.7783 46.8001 20.4604 340.6280 352.9697 40.2225 277.3832 340.7122 29.0533 5.9141 334.2792 1.9967 351.4111 37.7472 359.7828 358.0633 343.8518 21.4356 4.5997 355.1588 0.1869 354.8169 44.6063 11.5075 0.8681 343.9966 342.7724 
